<svg width="1054" height="32" viewBox="0 0 1054 32" fill="none" xmlns="http://www.w3.org/2000/svg">
<path d="M283.927 16.4103C283.927 20.8521 280.438 24.1251 276.156 24.1251C271.874 24.1251 268.385 20.8521 268.385 16.4103C268.385 11.9373 271.874 8.69556 276.156 8.69556C280.438 8.69556 283.927 11.9373 283.927 16.4103ZM280.526 16.4103C280.526 13.6347 278.503 11.7356 276.156 11.7356C273.809 11.7356 271.787 13.6347 271.787 16.4103C271.787 19.1582 273.809 21.0851 276.156 21.0851C278.503 21.0851 280.526 19.1547 280.526 16.4103Z" fill="#EA4335"/>
<path d="M300.692 16.4103C300.692 20.8521 297.203 24.1251 292.921 24.1251C288.639 24.1251 285.15 20.8521 285.15 16.4103C285.15 11.9408 288.639 8.69556 292.921 8.69556C297.203 8.69556 300.692 11.9373 300.692 16.4103ZM297.29 16.4103C297.29 13.6347 295.268 11.7356 292.921 11.7356C290.574 11.7356 288.551 13.6347 288.551 16.4103C288.551 19.1582 290.574 21.0851 292.921 21.0851C295.268 21.0851 297.29 19.1547 297.29 16.4103Z" fill="#FBBC05"/>
<path d="M316.758 9.16164V23.0121C316.758 28.7095 313.384 31.0364 309.396 31.0364C305.641 31.0364 303.381 28.5356 302.529 26.4903L305.491 25.2625C306.018 26.5182 307.311 27.9999 309.392 27.9999C311.945 27.9999 313.527 26.4312 313.527 23.4782V22.3686H313.409C312.647 23.3043 311.18 24.1216 309.329 24.1216C305.456 24.1216 301.907 20.7616 301.907 16.4382C301.907 12.0834 305.456 8.69556 309.329 8.69556C311.177 8.69556 312.644 9.51295 313.409 10.4208H313.527V9.16512H316.758V9.16164ZM313.768 16.4382C313.768 13.7216 311.949 11.7356 309.633 11.7356C307.286 11.7356 305.32 13.7216 305.32 16.4382C305.32 19.1269 307.286 21.0851 309.633 21.0851C311.949 21.0851 313.768 19.1269 313.768 16.4382Z" fill="#4285F4"/>
<path d="M322.085 1.04346V23.6522H318.767V1.04346H322.085Z" fill="#34A853"/>
<path d="M335.014 18.9495L337.655 20.7026C336.803 21.9582 334.749 24.1217 331.2 24.1217C326.8 24.1217 323.513 20.7339 323.513 16.4069C323.513 11.8191 326.828 8.69214 330.82 8.69214C334.84 8.69214 336.806 11.8782 337.449 13.6L337.802 14.4765L327.446 18.7478C328.239 20.2956 329.472 21.0852 331.2 21.0852C332.933 21.0852 334.134 20.2365 335.014 18.9495ZM326.887 16.1739L333.809 13.3113C333.429 12.3478 332.283 11.6765 330.935 11.6765C329.206 11.6765 326.8 13.1965 326.887 16.1739Z" fill="#EA4335"/>
<path d="M255.825 14.4036V11.1305H266.901C267.009 11.701 267.065 12.3757 267.065 13.1062C267.065 15.5618 266.391 18.5984 264.218 20.7618C262.105 22.9531 259.406 24.1218 255.829 24.1218C249.2 24.1218 243.626 18.7444 243.626 12.1427C243.626 5.54097 249.2 0.163574 255.829 0.163574C259.496 0.163574 262.109 1.59662 264.072 3.46444L261.753 5.77401C260.345 4.45923 258.438 3.43662 255.825 3.43662C250.985 3.43662 247.199 7.32183 247.199 12.1427C247.199 16.9636 250.985 20.8488 255.825 20.8488C258.965 20.8488 260.754 19.5931 261.899 18.4523C262.828 17.5271 263.44 16.2053 263.681 14.4001L255.825 14.4036Z" fill="#4285F4"/>
<g clip-path="url(#clip0_28_56)">
<path d="M30.0261 22.6792C29.8645 22.2892 29.7131 21.8792 29.5515 21.5292L28.8042 19.8592L28.7739 19.8292C26.5524 15.0292 24.1793 10.1492 21.6649 5.34921L21.5639 5.14921C21.3115 4.67921 21.059 4.15921 20.7965 3.67921C20.4734 3.10921 20.1603 2.49921 19.6453 1.91921C19.1433 1.31234 18.5115 0.8234 17.7956 0.487667C17.0796 0.151934 16.2973 -0.0222168 15.5051 -0.0222168C14.7129 -0.0222168 13.9306 0.151934 13.2147 0.487667C12.4987 0.8234 11.8669 1.31234 11.3649 1.91921C10.8903 2.49921 10.5369 3.10921 10.2137 3.67921C9.96129 4.19921 9.70884 4.70921 9.44629 5.17921L9.34531 5.37921C6.87129 10.1792 4.45786 15.0592 2.23629 19.8592L2.1757 19.9192C1.95355 20.4392 1.691 20.9792 1.43855 21.5592C1.27698 21.9092 1.11541 22.2892 0.953841 22.7092C0.517639 23.809 0.378346 25.0024 0.54969 26.1717C0.721034 27.341 1.1971 28.446 1.93097 29.3776C2.66484 30.3093 3.63119 31.0355 4.73477 31.4847C5.83836 31.9338 7.04109 32.0905 8.22443 31.9392C9.35891 31.7913 10.4513 31.4171 11.4356 30.8392C12.7484 30.1092 14.0106 29.0492 15.4243 27.5192C16.8381 29.0492 18.1306 30.1092 19.4131 30.8492C20.6463 31.5661 22.0429 31.9617 23.4725 31.9992C25.1279 32.006 26.7299 31.4195 27.9827 30.3479C29.2356 29.2764 30.0546 27.7921 30.2886 26.1692C30.5591 25.003 30.4676 23.7831 30.0261 22.6692V22.6792ZM15.5253 24.3392C13.7884 22.1392 12.6575 20.1192 12.2737 18.3892C12.1148 17.7481 12.0805 17.083 12.1728 16.4292C12.2434 15.9192 12.4353 15.4692 12.6979 15.0892C13.3037 14.2192 14.364 13.6792 15.5253 13.6792C16.0768 13.6625 16.6238 13.7817 17.1173 14.0261C17.6108 14.2704 18.0353 14.6323 18.3528 15.0792C18.6153 15.4792 18.8072 15.9192 18.8678 16.4292C18.9687 17.0092 18.9284 17.6792 18.7668 18.3892C18.3831 20.0892 17.2521 22.1292 15.5253 24.3392ZM28.3902 25.8192C28.2755 26.6432 27.9447 27.423 27.4309 28.0809C26.9171 28.7389 26.2382 29.252 25.4618 29.5692C24.6943 29.8892 23.8461 29.9792 23.0181 29.8892C22.2102 29.7892 21.4024 29.5292 20.5743 29.0492C19.1995 28.2077 17.9632 27.1622 16.9087 25.9492C19.0293 23.3492 20.3118 20.9792 20.7965 18.8692C21.0287 17.8692 21.059 16.9692 20.9581 16.1392C20.832 15.3525 20.5357 14.602 20.0896 13.9392C19.5803 13.2205 18.9004 12.6367 18.1098 12.2391C17.3192 11.8415 16.4421 11.6424 15.5556 11.6592C13.6875 11.6592 12.0213 12.5192 11.0115 13.9292C10.5569 14.5904 10.2631 15.3468 10.1532 16.1392C10.0219 16.9792 10.0522 17.9092 10.3147 18.8692C10.7994 20.9792 12.1122 23.3792 14.2025 25.9692C13.1659 27.2054 11.9267 28.2601 10.5369 29.0892C9.69874 29.5692 8.901 29.8192 8.09315 29.9192C6.83684 30.0786 5.56779 29.7404 4.56183 28.9783C3.55588 28.2162 2.89433 27.0917 2.721 25.8492C2.62002 25.0492 2.6907 24.2492 3.01384 23.3492C3.11482 23.0292 3.26629 22.7092 3.42786 22.3292C3.65002 21.8092 3.91257 21.2692 4.16502 20.7292L4.20541 20.6592C6.38659 15.8892 8.76972 11.0192 11.2437 6.24921L11.3447 6.04921C11.5972 5.56921 11.8496 5.05921 12.1122 4.57921C12.3747 4.06921 12.6575 3.57921 13.021 3.17921C13.3357 2.80723 13.7289 2.50808 14.1729 2.30283C14.6169 2.09757 15.1009 1.9912 15.5909 1.9912C16.081 1.9912 16.565 2.09757 17.009 2.30283C17.453 2.50808 17.8462 2.80723 18.1609 3.17921C18.5143 3.57921 18.8072 4.06921 19.0697 4.57921C19.3222 5.05921 19.5746 5.57921 19.8372 6.04921L19.9382 6.24921C22.4021 11.0192 24.7852 15.8892 27.0068 20.6592L27.0371 20.6892C27.2996 21.2092 27.5218 21.7892 27.7742 22.2892C27.9358 22.6792 28.0974 22.9892 28.1984 23.3192C28.3902 24.2192 28.4912 25.0192 28.3902 25.8192ZM42.4467 24.1192C41.6858 24.1302 40.9321 23.9715 40.2416 23.6547C39.5511 23.3379 38.9415 22.8712 38.458 22.2892C37.3715 21.0492 36.7948 19.4503 36.8423 17.8092C36.8256 16.1324 37.4209 14.5061 38.5185 13.2292C39.0263 12.6398 39.6583 12.1678 40.3701 11.8465C41.082 11.5251 41.8563 11.3622 42.6385 11.3692C43.3746 11.3493 44.1037 11.515 44.7573 11.8509C45.4109 12.1868 45.9675 12.6817 46.3748 13.2892L46.4758 11.7192H49.4244V23.7992H46.4657L46.3647 22.0392C45.9448 22.6879 45.3644 23.2195 44.6787 23.5835C43.993 23.9476 43.2246 24.132 42.4467 24.1192ZM43.2141 21.2392C43.7998 21.2392 44.3148 21.0792 44.7995 20.7892C45.2438 20.4692 45.6074 20.0492 45.8901 19.5392C46.1426 19.0292 46.2738 18.4192 46.2738 17.7392C46.3132 17.1486 46.1971 16.558 45.9369 16.0251C45.6767 15.4923 45.2813 15.0354 44.7894 14.6992C44.3168 14.4076 43.771 14.253 43.2141 14.253C42.6572 14.253 42.1115 14.4076 41.6388 14.6992C41.1945 15.0192 40.831 15.4392 40.5483 15.9492C40.2812 16.5117 40.1498 17.1279 40.1645 17.7492C40.1252 18.3398 40.2412 18.9304 40.5014 19.4633C40.7616 19.9962 41.157 20.453 41.6489 20.7892C42.1235 21.0792 42.6385 21.2392 43.2141 21.2392ZM54.4734 8.45921C54.4734 8.80921 54.4129 9.12921 54.2513 9.38921C54.0897 9.63921 53.8676 9.86921 53.5747 10.0292C53.2819 10.1892 52.9688 10.2492 52.6457 10.2492C52.3226 10.2492 51.9994 10.1892 51.7066 10.0292C51.4296 9.87652 51.1967 9.6562 51.03 9.38921C50.8736 9.10434 50.7969 8.78327 50.8079 8.45921C50.8079 8.09921 50.8785 7.77921 51.03 7.52921C51.1916 7.22921 51.4238 7.04921 51.7066 6.88921C51.9994 6.72921 52.3125 6.65921 52.6457 6.65921C52.9671 6.65188 53.285 6.72727 53.5682 6.87801C53.8514 7.02875 54.0902 7.24968 54.2614 7.51921C54.4083 7.81076 54.4811 8.13345 54.4734 8.45921ZM51.0401 23.7592V11.6992H54.2513V23.7792H51.03L51.0401 23.7592ZM62.8346 14.8592V14.8992C62.6832 14.8292 62.4812 14.7992 62.3297 14.7692C62.1278 14.7292 61.9662 14.7292 61.7743 14.7292C60.8756 14.7292 60.199 14.9892 59.7547 15.5292C59.27 16.0792 59.0479 16.8492 59.0479 17.8392V23.7692H55.8266V11.6892H58.7853L58.8863 13.5192C59.2094 12.8792 59.5932 12.3992 60.1384 12.0392C60.6808 11.6894 61.3194 11.5147 61.9662 11.5392C62.1984 11.5392 62.4206 11.5592 62.6125 11.5992C62.7134 11.6292 62.774 11.6292 62.8346 11.6592V14.8592ZM64.1272 23.7592V6.73921H67.3384V13.2392C67.7928 12.6592 68.3078 12.2092 68.954 11.8592C69.9772 11.3624 71.1395 11.2215 72.2534 11.4592C73.3673 11.6969 74.3679 12.2993 75.0936 13.1692C76.1825 14.4118 76.7593 16.0147 76.7093 17.6592C76.726 19.336 76.1307 20.9624 75.0331 22.2392C74.5253 22.8286 73.8933 23.3006 73.1815 23.6219C72.4696 23.9433 71.6953 24.1062 70.9131 24.0992C70.177 24.1192 69.4479 23.9534 68.7943 23.6175C68.1407 23.2817 67.5841 22.7867 67.1768 22.1792L67.0758 23.7492L64.1272 23.7792V23.7592ZM70.3375 21.2392C70.9131 21.2392 71.4281 21.0792 71.9128 20.7892C72.3571 20.4692 72.7206 20.0492 73.0034 19.5392C73.2659 19.0292 73.3871 18.4192 73.3871 17.7392C73.3871 17.0692 73.2659 16.4592 73.0034 15.9492C72.7382 15.4574 72.3656 15.0304 71.9128 14.6992C71.4401 14.4076 70.8944 14.253 70.3375 14.253C69.7806 14.253 69.2348 14.4076 68.7622 14.6992C68.3078 15.0192 67.9543 15.4392 67.6615 15.9492C67.3945 16.5117 67.2631 17.1279 67.2778 17.7492C67.2384 18.3398 67.3545 18.9304 67.6147 19.4633C67.8749 19.9962 68.2703 20.453 68.7622 20.7892C69.2368 21.0792 69.7518 21.2392 70.3375 21.2392ZM77.9211 23.7692V11.6892H80.8798L80.9808 13.2592C81.3526 12.6574 81.88 12.1649 82.5085 11.8326C83.137 11.5003 83.8437 11.3403 84.5555 11.3692C85.3695 11.3553 86.1696 11.5793 86.8557 12.0133C87.5418 12.4473 88.0835 13.072 88.413 13.8092C88.7664 14.5692 88.9583 15.5092 88.9583 16.5592V23.7992H85.737V16.9792C85.737 16.1392 85.5451 15.4792 85.1614 14.9892C84.7777 14.5092 84.2526 14.2492 83.5861 14.2492C83.1014 14.2492 82.6773 14.3492 82.3036 14.5692C81.9502 14.7992 81.6574 15.0892 81.4352 15.4992C81.2106 15.9137 81.0992 16.379 81.1121 16.8492V23.7692H77.9211ZM90.5638 23.7692V6.72921H93.7851V13.2292C94.2214 12.646 94.789 12.1715 95.4429 11.8434C96.0967 11.5153 96.8187 11.3427 97.5517 11.3392C98.3126 11.3282 99.0663 11.487 99.7568 11.8038C100.447 12.1206 101.057 12.5872 101.54 13.1692C102.622 14.4117 103.194 16.0098 103.146 17.6492C103.164 19.3262 102.568 20.9528 101.47 22.2292C100.962 22.8186 100.33 23.2906 99.6181 23.6119C98.9063 23.9333 98.132 24.0962 97.3497 24.0892C96.6136 24.1092 95.8845 23.9434 95.2309 23.6075C94.5773 23.2717 94.0207 22.7767 93.6134 22.1692L93.5226 23.7392L90.5638 23.7692ZM96.8044 21.2392C97.3901 21.2392 97.9051 21.0792 98.3797 20.7892C98.8341 20.4692 99.1876 20.0492 99.4804 19.5392C99.7329 19.0292 99.8641 18.4192 99.8641 17.7392C99.9035 17.1486 99.7874 16.558 99.5272 16.0251C99.267 15.4923 98.8716 15.0354 98.3797 14.6992C97.9071 14.4076 97.3613 14.253 96.8044 14.253C96.2475 14.253 95.7018 14.4076 95.2291 14.6992C94.7848 15.0192 94.4213 15.4392 94.1386 15.9492C93.8567 16.5066 93.7245 17.1265 93.7548 17.7492C93.7155 18.3398 93.8315 18.9304 94.0917 19.4633C94.3519 19.9962 94.7473 20.453 95.2392 20.7892C95.7138 21.0792 96.1986 21.2392 96.8044 21.2392Z" fill="#FF385C"/>
</g>
<g clip-path="url(#clip1_28_56)">
<path d="M510.564 17.9753L509.837 20.0311H509.776C509.655 19.5675 509.433 18.8621 509.069 18.0156L505.171 8.24042H501.353V23.8203H503.878V14.2063C503.878 13.6017 503.878 12.9164 503.858 12.0699C503.838 11.6466 503.797 11.3241 503.777 11.0823H503.838C503.959 11.6869 504.1 12.1303 504.201 12.4125L508.887 23.78H510.665L515.31 12.3117C515.411 12.0497 515.512 11.5257 515.613 11.0823H515.674C515.613 12.2311 515.573 13.259 515.553 13.8838V23.7598H518.239V8.20011H514.563L510.564 17.9753ZM520.784 12.5939H523.41V23.7598H520.784V12.5939ZM522.117 7.87763C521.673 7.87763 521.309 8.03887 521.006 8.32104C520.703 8.60321 520.542 8.966 520.542 9.40941C520.542 9.83266 520.703 10.1955 521.006 10.4776C521.309 10.7598 521.673 10.9009 522.117 10.9009C522.562 10.9009 522.945 10.7396 523.228 10.4776C523.531 10.1955 523.693 9.83266 523.693 9.40941C523.693 8.98615 523.531 8.62336 523.228 8.32104C522.966 8.03887 522.582 7.87763 522.117 7.87763ZM532.722 12.4931C532.237 12.3923 531.732 12.3319 531.247 12.3319C530.055 12.3319 528.965 12.5939 528.056 13.1179C527.147 13.642 526.42 14.3675 525.955 15.2745C525.47 16.2017 525.228 17.2699 525.228 18.4993C525.228 19.5675 525.47 20.5148 525.935 21.3815C526.399 22.228 527.046 22.9133 527.914 23.3769C528.742 23.8404 529.712 24.0823 530.803 24.0823C532.055 24.0823 533.126 23.8203 533.974 23.3365L533.994 23.3164V20.8978L533.893 20.9784C533.509 21.2606 533.065 21.5024 532.621 21.6435C532.156 21.8048 531.732 21.8854 531.368 21.8854C530.318 21.8854 529.49 21.5831 528.904 20.9179C528.298 20.273 527.995 19.3862 527.995 18.2776C527.995 17.1288 528.298 16.2218 528.924 15.5567C529.55 14.8916 530.379 14.5489 531.389 14.5489C532.237 14.5489 533.105 14.8311 533.893 15.3955L533.994 15.4761V12.9164L533.974 12.8962C533.631 12.7551 533.247 12.5939 532.722 12.4931ZM541.387 12.4125C540.74 12.4125 540.135 12.6141 539.609 13.0373C539.165 13.4001 538.862 13.9241 538.599 14.5489H538.579V12.5939H535.953V23.7598H538.579V18.0559C538.579 17.0885 538.781 16.2823 539.226 15.6978C539.67 15.0931 540.236 14.7908 540.922 14.7908C541.165 14.7908 541.407 14.8513 541.71 14.8916C541.993 14.9722 542.195 15.0528 542.336 15.1536L542.437 15.2342V12.6141L542.377 12.5939C542.195 12.473 541.831 12.4125 541.387 12.4125ZM548.537 12.352C546.699 12.352 545.225 12.8962 544.194 13.9644C543.144 15.0327 542.639 16.504 542.639 18.3582C542.639 20.0916 543.164 21.5024 544.174 22.5303C545.184 23.5381 546.558 24.0621 548.275 24.0621C550.072 24.0621 551.506 23.5179 552.537 22.4296C553.587 21.3412 554.092 19.89 554.092 18.0962C554.092 16.3226 553.607 14.9117 552.617 13.8838C551.668 12.8559 550.274 12.352 548.537 12.352ZM550.638 20.9381C550.153 21.5629 549.386 21.8652 548.436 21.8652C547.487 21.8652 546.719 21.5629 546.174 20.8978C545.629 20.273 545.366 19.366 545.366 18.2172C545.366 17.028 545.649 16.121 546.174 15.4761C546.719 14.8311 547.467 14.5086 548.416 14.5086C549.345 14.5086 550.072 14.811 550.597 15.4358C551.123 16.0606 551.405 16.9675 551.405 18.1567C551.365 19.366 551.143 20.3133 550.638 20.9381ZM559.949 17.2296C559.121 16.8869 558.596 16.6249 558.354 16.4032C558.152 16.2017 558.051 15.9195 558.051 15.5567C558.051 15.2544 558.172 14.952 558.475 14.7505C558.778 14.5489 559.121 14.4482 559.626 14.4482C560.071 14.4482 560.535 14.5288 560.98 14.6497C561.424 14.7706 561.828 14.952 562.151 15.1939L562.252 15.2745V12.8156L562.191 12.7955C561.888 12.6745 561.485 12.5536 561 12.4528C560.515 12.3722 560.071 12.3319 559.707 12.3319C558.455 12.3319 557.425 12.6342 556.617 13.2993C555.809 13.9241 555.425 14.7706 555.425 15.7582C555.425 16.2823 555.506 16.7458 555.688 17.1288C555.869 17.5117 556.132 17.8745 556.495 18.1769C556.859 18.459 557.384 18.7815 558.111 19.0838C558.717 19.3458 559.182 19.5474 559.465 19.7086C559.747 19.8699 559.929 20.0513 560.071 20.1924C560.172 20.3536 560.232 20.5551 560.232 20.8172C560.232 21.5629 559.667 21.9257 558.515 21.9257C558.071 21.9257 557.606 21.8451 557.061 21.6637C556.516 21.4823 556.011 21.2203 555.587 20.9179L555.486 20.8373V23.397L555.546 23.4172C555.93 23.5986 556.394 23.7195 556.96 23.8606C557.526 23.9613 558.031 24.042 558.475 24.042C559.828 24.042 560.939 23.7396 561.727 23.0745C562.535 22.4296 562.959 21.6032 562.959 20.535C562.959 19.7893 562.757 19.1241 562.313 18.6203C561.727 18.1365 561 17.6327 559.949 17.2296ZM569.887 12.352C568.049 12.352 566.575 12.8962 565.544 13.9644C564.514 15.0327 563.989 16.504 563.989 18.3582C563.989 20.0916 564.514 21.5024 565.524 22.5303C566.534 23.5381 567.908 24.0621 569.625 24.0621C571.422 24.0621 572.856 23.5179 573.886 22.4296C574.937 21.3412 575.442 19.89 575.442 18.0962C575.442 16.3226 574.957 14.9117 573.967 13.8838C573.018 12.8559 571.624 12.352 569.887 12.352ZM571.968 20.9381C571.483 21.5629 570.715 21.8652 569.766 21.8652C568.796 21.8652 568.049 21.5629 567.504 20.8978C566.958 20.273 566.696 19.366 566.696 18.2172C566.696 17.028 566.979 16.121 567.504 15.4761C568.049 14.8311 568.796 14.5086 569.746 14.5086C570.655 14.5086 571.402 14.811 571.927 15.4358C572.452 16.0606 572.735 16.9675 572.735 18.1567C572.735 19.366 572.473 20.3133 571.968 20.9381ZM589.48 14.7505V12.5939H586.834V9.28848L586.753 9.30863L584.248 10.0544L584.188 10.0745V12.5939H580.229V11.183C580.229 10.5381 580.39 10.0342 580.673 9.71173C580.956 9.38925 581.38 9.22801 581.905 9.22801C582.269 9.22801 582.653 9.30863 583.077 9.49003L583.178 9.55049V7.27298L583.117 7.25282C582.754 7.13189 582.269 7.05127 581.643 7.05127C580.855 7.05127 580.168 7.23266 579.542 7.53499C578.916 7.87763 578.451 8.34119 578.108 8.966C577.765 9.57065 577.583 10.2559 577.583 11.042V12.5939H575.745V14.7303H577.583V23.7598H580.229V14.7505H584.188V20.4947C584.188 22.8528 585.299 24.042 587.521 24.042C587.884 24.042 588.268 23.9815 588.631 23.921C589.015 23.8404 589.298 23.7396 589.46 23.659L589.48 23.6389V21.4823L589.379 21.5629C589.217 21.6637 589.076 21.7443 588.833 21.8048C588.631 21.8652 588.45 21.8854 588.308 21.8854C587.783 21.8854 587.42 21.7644 587.157 21.4621C586.915 21.18 586.793 20.7164 586.793 20.0311V14.7505H589.48Z" fill="#737373"/>
<path d="M467.5 3H479.882V15.355H467.5V3Z" fill="#F25022"/>
<path d="M481.174 3H493.556V15.355H481.174V3Z" fill="#7FBA00"/>
<path d="M467.5 16.645H479.882V29.0001H467.5V16.645Z" fill="#00A4EF"/>
<path d="M481.174 16.645H493.556V29.0001H481.174V16.645Z" fill="#FFB900"/>
</g>
<g clip-path="url(#clip2_28_56)">
<path d="M789.864 30.1021L798.203 20.8655L789.864 11.6277H798.663L802.793 16.1148L806.771 11.6277H815.263L806.963 20.8274L815.377 30.1021H806.542L802.448 25.5781L798.394 30.1021H789.864Z" fill="#FF6600"/>
<path d="M789.864 7.48643H780.419V11.6277H789.864V17.869H780.419V23.5977H789.864V30.1021H773.476V1H789.864V7.48643Z" fill="#FF6600"/>
<path d="M766.563 1V12.91H766.487C764.957 11.176 763.045 10.5734 760.826 10.5734C756.281 10.5734 752.858 13.6189 751.656 17.6453C750.286 13.2087 746.751 10.4903 741.51 10.4903C737.254 10.4903 733.894 12.3734 732.14 15.442V11.6281H723.342V7.48729H732.943V1H715.5V30.1026H723.342V17.869H731.159C730.926 18.7677 730.801 19.7299 730.801 20.7451C730.801 26.8159 735.506 31.0754 741.51 31.0754C746.56 31.0754 749.887 28.7389 751.647 24.4789H744.927C744.017 25.7586 743.328 26.1387 741.51 26.1387C739.403 26.1387 737.586 24.3263 737.586 22.1779H751.27C751.864 26.9997 755.674 31.1581 760.903 31.1581C763.159 31.1581 765.224 30.0644 766.487 28.2177H766.563V30.1017H773.477V1H766.563ZM737.804 17.956C738.24 16.1076 739.695 14.8994 741.51 14.8994C743.509 14.8994 744.89 16.0703 745.253 17.956C745.406 17.956 737.804 17.956 737.804 17.956ZM762.368 25.6711C759.82 25.6711 758.236 23.3307 758.236 20.887C758.236 18.2749 759.614 15.763 762.368 15.763C765.224 15.763 766.362 18.2749 766.362 20.887C766.362 23.3641 765.156 25.6711 762.368 25.6711Z" fill="#652C8F"/>
</g>
<g clip-path="url(#clip3_28_56)">
<path fill-rule="evenodd" clip-rule="evenodd" d="M1014.4 25.0249C1008.41 29.5732 999.738 31.9999 992.268 31.9999C981.795 31.9999 972.366 28.0063 965.233 21.3641C964.672 20.8417 965.174 20.1299 965.847 20.5367C973.545 25.1543 983.064 27.9323 992.896 27.9323C999.527 27.9323 1006.82 26.5179 1013.53 23.5827C1014.54 23.139 1015.39 24.2668 1014.4 25.0249Z" fill="#FF9900"/>
<path fill-rule="evenodd" clip-rule="evenodd" d="M1016.89 22.0898C1016.13 21.0821 1011.83 21.6137 1009.9 21.8494C1009.32 21.9234 1009.23 21.3964 1009.75 21.0174C1013.18 18.5352 1018.79 19.2517 1019.44 20.0837C1020.1 20.9203 1019.27 26.7213 1016.06 29.49C1015.56 29.9153 1015.09 29.6888 1015.31 29.1249C1016.04 27.2667 1017.65 23.1021 1016.89 22.0898Z" fill="#FF9900"/>
<path fill-rule="evenodd" clip-rule="evenodd" d="M1010.04 3.4944V1.08157C1010.04 0.716416 1010.31 0.471436 1010.63 0.471436H1021.11C1021.44 0.471436 1021.71 0.721038 1021.71 1.08157V3.14773C1021.71 3.4944 1021.42 3.94738 1020.92 4.66383L1015.49 12.6557C1017.51 12.6049 1019.64 12.9146 1021.47 13.9777C1021.88 14.2181 1021.99 14.5694 1022.03 14.916V17.4906C1022.03 17.8419 1021.65 18.2533 1021.25 18.0407C1018.03 16.2981 1013.75 16.1086 1010.18 18.0592C1009.82 18.2626 1009.44 17.8558 1009.44 17.5045V15.0593C1009.44 14.6664 1009.44 13.9962 1009.83 13.3999L1016.12 4.09992H1010.64C1010.31 4.09992 1010.04 3.85494 1010.04 3.4944Z" fill="black"/>
<path fill-rule="evenodd" clip-rule="evenodd" d="M971.815 18.5492H968.627C968.322 18.5261 968.08 18.2904 968.057 17.99V1.1233C968.057 0.785874 968.331 0.517781 968.672 0.517781H971.644C971.954 0.531638 972.2 0.776627 972.223 1.0817V3.28652H972.281C973.056 1.15565 974.514 0.161865 976.477 0.161865C978.473 0.161865 979.719 1.15565 980.616 3.28652C981.387 1.15565 983.14 0.161865 985.018 0.161865C986.355 0.161865 987.816 0.730404 988.708 2.00615C989.717 3.42519 989.511 5.48672 989.511 7.29403L989.507 17.9391C989.507 18.2765 989.233 18.5492 988.892 18.5492H985.709C985.391 18.5261 985.135 18.2627 985.135 17.9391V8.99964C985.135 8.28781 985.198 6.51286 985.045 5.83801C984.808 4.70556 984.095 4.38662 983.171 4.38662C982.4 4.38662 981.593 4.91818 981.266 5.76868C980.938 6.61918 980.97 8.04283 980.97 8.99964V17.9391C980.97 18.2765 980.696 18.5492 980.356 18.5492H977.172C976.85 18.5261 976.598 18.2627 976.598 17.9391L976.594 8.99964C976.594 7.11838 976.894 4.34964 974.63 4.34964C972.339 4.34964 972.429 7.04904 972.429 8.99964V17.9391C972.429 18.2765 972.155 18.5492 971.815 18.5492Z" fill="black"/>
<path fill-rule="evenodd" clip-rule="evenodd" d="M1030.73 0.161865C1035.46 0.161865 1038.02 4.34964 1038.02 9.6745C1038.02 14.8191 1035.19 18.9005 1030.73 18.9005C1026.09 18.9005 1023.56 14.7128 1023.56 9.49423C1023.56 4.24333 1026.12 0.161865 1030.73 0.161865ZM1030.76 3.60546C1028.41 3.60546 1028.26 6.90576 1028.26 8.96267C1028.26 11.0242 1028.23 15.4246 1030.73 15.4246C1033.2 15.4246 1033.32 11.8747 1033.32 9.71147C1033.32 8.28782 1033.26 6.58682 1032.84 5.23712C1032.49 4.06306 1031.77 3.60546 1030.76 3.60546Z" fill="black"/>
<path fill-rule="evenodd" clip-rule="evenodd" d="M1044.16 18.5492H1040.98C1040.66 18.5261 1040.41 18.2627 1040.41 17.9391L1040.4 1.06783C1040.43 0.758138 1040.7 0.517781 1041.02 0.517781H1043.97C1044.25 0.531638 1044.48 0.725783 1044.54 0.989253V3.56848H1044.6C1045.49 1.26197 1046.74 0.161865 1048.94 0.161865C1050.38 0.161865 1051.77 0.693427 1052.67 2.14944C1053.5 3.49914 1053.5 5.76868 1053.5 7.40034V18.0177C1053.46 18.3135 1053.2 18.5492 1052.89 18.5492H1049.69C1049.4 18.5261 1049.16 18.3043 1049.12 18.0177V8.85635C1049.12 7.01207 1049.33 4.31266 1047.13 4.31266C1046.35 4.31266 1045.64 4.84885 1045.29 5.66236C1044.84 6.69313 1044.78 7.71928 1044.78 8.85635V17.9391C1044.78 18.2765 1044.5 18.5492 1044.16 18.5492Z" fill="black"/>
<path fill-rule="evenodd" clip-rule="evenodd" d="M1001.68 10.4926C1001.68 11.7729 1001.72 12.8407 1001.09 13.9777C1000.58 14.9022 999.774 15.4707 998.882 15.4707C997.658 15.4707 996.94 14.5093 996.94 13.0903C996.94 10.2892 999.375 9.78073 1001.68 9.78073V10.4926ZM1004.9 18.5029C1004.69 18.6971 1004.38 18.7109 1004.15 18.5815C1003.09 17.6756 1002.89 17.2549 1002.32 16.3906C1000.57 18.2302 999.326 18.7803 997.062 18.7803C994.376 18.7803 992.291 17.0747 992.291 13.6588C992.291 10.9918 993.69 9.17521 995.69 8.28773C997.42 7.50194 999.837 7.36328 1001.68 7.14603V6.72078C1001.68 5.93962 1001.74 5.01516 1001.29 4.34031C1000.91 3.73479 1000.16 3.48519 999.505 3.48519C998.29 3.48519 997.209 4.12769 996.945 5.4589C996.891 5.75473 996.68 6.04593 996.389 6.0598L993.3 5.71775C993.04 5.65766 992.748 5.44041 992.825 5.02903C993.533 1.16482 996.923 0 999.953 0C1001.5 0 1003.53 0.42525 1004.76 1.63628C1006.31 3.12928 1006.16 5.12148 1006.16 7.28932V12.4108C1006.16 13.95 1006.78 14.6249 1007.36 15.4569C1007.56 15.7527 1007.61 16.1086 1007.35 16.3305C1006.7 16.8898 1005.54 17.9298 1004.9 18.5122L1004.9 18.5029Z" fill="black"/>
<path fill-rule="evenodd" clip-rule="evenodd" d="M959.893 10.4928C959.893 11.7732 959.924 12.8409 959.297 13.978C958.79 14.9024 957.987 15.471 957.091 15.471C955.867 15.471 955.154 14.5095 955.154 13.0905C955.154 10.2894 957.588 9.78097 959.893 9.78097V10.4928ZM963.108 18.5032C962.897 18.6973 962.592 18.7112 962.354 18.5818C961.296 17.6758 961.108 17.2552 960.525 16.3908C958.777 18.2305 957.539 18.7805 955.27 18.7805C952.589 18.7805 950.5 17.0749 950.5 13.6591C950.5 10.992 951.903 9.17545 953.899 8.28797C955.629 7.50219 958.046 7.36352 959.893 7.14627V6.72103C959.893 5.93986 959.951 5.01541 959.507 4.34056C959.117 3.73504 958.373 3.48544 957.718 3.48544C956.503 3.48544 955.418 4.12793 955.154 5.45914C955.1 5.75497 954.889 6.04617 954.602 6.06004L951.509 5.71799C951.249 5.6579 950.962 5.44065 951.034 5.02928C951.746 1.16506 955.131 0.000244141 958.162 0.000244141C959.714 0.000244141 961.74 0.425494 962.964 1.63653C964.516 3.12952 964.368 5.12172 964.368 7.28956V12.411C964.368 13.9503 964.986 14.6251 965.569 15.4571C965.775 15.7529 965.82 16.1089 965.56 16.3307C964.91 16.89 963.753 17.93 963.117 18.5124L963.108 18.5032Z" fill="black"/>
</g>
<defs>
<clipPath id="clip0_28_56">
<rect width="104" height="32" fill="white"/>
</clipPath>
<clipPath id="clip1_28_56">
<rect width="123" height="26" fill="white" transform="translate(467 3)"/>
</clipPath>
<clipPath id="clip2_28_56">
<rect width="101" height="30" fill="white" transform="translate(715 1)"/>
</clipPath>
<clipPath id="clip3_28_56">
<rect width="104" height="32" fill="white" transform="translate(950)"/>
</clipPath>
</defs>
</svg>
