<svg width="21" height="14" viewBox="0 0 21 14" fill="none" xmlns="http://www.w3.org/2000/svg">
<path d="M20.435 10.6514V10.4056H20.3707L20.2963 10.5744L20.2223 10.4056H20.1576V10.6514H20.2033V10.466L20.2729 10.626H20.3202L20.3897 10.4656V10.6514H20.435ZM20.027 10.6514V10.4475H20.1095V10.406H19.8992V10.4475H19.9817V10.6514H20.027Z" fill="#F79410"/>
<path d="M13.1517 11.7041H7.60962V1.78125H13.1517V11.7041Z" fill="#FF5F00"/>
<path d="M7.96456 6.74177C7.96456 4.72887 8.91054 2.93584 10.3837 1.78034C9.30641 0.93538 7.94684 0.431053 6.46927 0.431053C2.97127 0.431053 0.135742 3.25641 0.135742 6.74177C0.135742 10.2271 2.97127 13.0525 6.46927 13.0525C7.94684 13.0525 9.30641 12.5482 10.3837 11.7032C8.91054 10.5477 7.96456 8.75467 7.96456 6.74177Z" fill="#EB001B"/>
<path d="M20.6261 6.74177C20.6261 10.2271 17.7906 13.0525 14.2926 13.0525C12.8151 13.0525 11.4555 12.5482 10.3778 11.7032C11.8513 10.5477 12.7973 8.75467 12.7973 6.74177C12.7973 4.72887 11.8513 2.93584 10.3778 1.78034C11.4555 0.93538 12.8151 0.431053 14.2926 0.431053C17.7906 0.431053 20.6261 3.25641 20.6261 6.74177Z" fill="#F79E1B"/>
</svg>
