<svg width="61" height="20" viewBox="0 0 61 20" fill="none" xmlns="http://www.w3.org/2000/svg">
<path d="M14.5684 17.1426C13.7871 17.8145 12.9121 18.3301 11.9434 18.6895C10.9746 19.0488 9.9707 19.2285 8.93164 19.2285C8.13477 19.2285 7.36523 19.123 6.62305 18.9121C5.88867 18.709 5.19727 18.4199 4.54883 18.0449C3.9082 17.6621 3.32227 17.2051 2.79102 16.6738C2.25977 16.1426 1.80273 15.5566 1.41992 14.916C1.04492 14.2676 0.751953 13.5762 0.541016 12.8418C0.337891 12.0996 0.236328 11.3301 0.236328 10.5332C0.236328 9.73633 0.337891 8.9668 0.541016 8.22461C0.751953 7.48242 1.04492 6.79102 1.41992 6.15039C1.80273 5.50195 2.25977 4.91211 2.79102 4.38086C3.32227 3.84961 3.9082 3.39648 4.54883 3.02148C5.19727 2.63867 5.88867 2.3457 6.62305 2.14258C7.36523 1.93164 8.13477 1.82617 8.93164 1.82617C9.9707 1.82617 10.9746 2.00586 11.9434 2.36523C12.9121 2.7168 13.7871 3.23242 14.5684 3.91211L12.7871 6.8418C12.2949 6.31055 11.7129 5.9043 11.041 5.62305C10.3691 5.33398 9.66602 5.18945 8.93164 5.18945C8.18945 5.18945 7.49414 5.33008 6.8457 5.61133C6.19727 5.89258 5.63086 6.27539 5.14648 6.75977C4.66211 7.23633 4.2793 7.80273 3.99805 8.45898C3.7168 9.10742 3.57617 9.79883 3.57617 10.5332C3.57617 11.2676 3.7168 11.959 3.99805 12.6074C4.2793 13.248 4.66211 13.8105 5.14648 14.2949C5.63086 14.7793 6.19727 15.1621 6.8457 15.4434C7.49414 15.7246 8.18945 15.8652 8.93164 15.8652C9.66602 15.8652 10.3691 15.7246 11.041 15.4434C11.7129 15.1543 12.2949 14.7441 12.7871 14.2129L14.5684 17.1426Z" fill="#072AC8"/>
<path d="M19.959 2.9043C19.959 3.20117 19.9004 3.47852 19.7832 3.73633C19.6738 3.99414 19.5215 4.2207 19.3262 4.41602C19.1309 4.60352 18.9004 4.75586 18.6348 4.87305C18.377 4.98242 18.0996 5.03711 17.8027 5.03711C17.5059 5.03711 17.2246 4.98242 16.959 4.87305C16.7012 4.75586 16.4746 4.60352 16.2793 4.41602C16.0918 4.2207 15.9395 3.99414 15.8223 3.73633C15.7129 3.47852 15.6582 3.20117 15.6582 2.9043C15.6582 2.61523 15.7129 2.3418 15.8223 2.08398C15.9395 1.81836 16.0918 1.5918 16.2793 1.4043C16.4746 1.20898 16.7012 1.05664 16.959 0.947266C17.2246 0.830078 17.5059 0.771484 17.8027 0.771484C18.0996 0.771484 18.377 0.830078 18.6348 0.947266C18.9004 1.05664 19.1309 1.20898 19.3262 1.4043C19.5215 1.5918 19.6738 1.81836 19.7832 2.08398C19.9004 2.3418 19.959 2.61523 19.959 2.9043ZM19.4082 18.8652H16.1855V6.31445H19.4082V18.8652Z" fill="#072AC8"/>
<path d="M25.0566 18.8652H21.8574V6.31445H22.6309L23.6855 7.80273C24.2012 7.33398 24.7871 6.97461 25.4434 6.72461C26.0996 6.4668 26.7793 6.33789 27.4824 6.33789H30.3066V9.52539H27.4824C27.1465 9.52539 26.8301 9.58789 26.5332 9.71289C26.2363 9.83789 25.9785 10.0098 25.7598 10.2285C25.541 10.4473 25.3691 10.7051 25.2441 11.002C25.1191 11.2988 25.0566 11.6152 25.0566 11.9512V18.8652Z" fill="#072AC8"/>
<path d="M42.5293 8.81055L40.1855 11.166C40.0684 10.8379 39.9082 10.5449 39.7051 10.2871C39.502 10.0215 39.2715 9.79883 39.0137 9.61914C38.7637 9.43945 38.4902 9.30273 38.1934 9.20898C37.8965 9.11523 37.5918 9.06836 37.2793 9.06836C36.8418 9.06836 36.4277 9.1582 36.0371 9.33789C35.6543 9.51758 35.3184 9.77148 35.0293 10.0996C34.748 10.4199 34.5254 10.8027 34.3613 11.248C34.1973 11.6934 34.1152 12.1855 34.1152 12.7246C34.1152 13.1621 34.1973 13.5723 34.3613 13.9551C34.5254 14.3379 34.748 14.6738 35.0293 14.9629C35.3184 15.252 35.6543 15.4785 36.0371 15.6426C36.4277 15.8066 36.8418 15.8887 37.2793 15.8887C37.5918 15.8887 37.8926 15.8457 38.1816 15.7598C38.4707 15.6738 38.7402 15.5527 38.9902 15.3965C39.248 15.2324 39.4746 15.0371 39.6699 14.8105C39.873 14.5762 40.0371 14.3184 40.1621 14.0371L42.5059 16.3926C42.209 16.8145 41.8652 17.1934 41.4746 17.5293C41.0918 17.8652 40.6738 18.1504 40.2207 18.3848C39.7754 18.6191 39.3027 18.7949 38.8027 18.9121C38.3105 19.0371 37.8027 19.0996 37.2793 19.0996C36.3965 19.0996 35.5645 18.9355 34.7832 18.6074C34.0098 18.2715 33.3301 17.8145 32.7441 17.2363C32.166 16.6582 31.709 15.9824 31.373 15.209C31.0371 14.4355 30.8691 13.6074 30.8691 12.7246C30.8691 11.7637 31.0371 10.8652 31.373 10.0293C31.709 9.19336 32.166 8.4668 32.7441 7.84961C33.3301 7.22461 34.0098 6.73242 34.7832 6.37305C35.5645 6.01367 36.3965 5.83398 37.2793 5.83398C37.8027 5.83398 38.3145 5.90039 38.8145 6.0332C39.3223 6.16602 39.8027 6.36133 40.2559 6.61914C40.7168 6.86914 41.1387 7.17773 41.5215 7.54492C41.9121 7.91211 42.248 8.33398 42.5293 8.81055Z" fill="#072AC8"/>
<path d="M47.3223 18.8652H44.0996V1.32227H47.3223V18.8652Z" fill="#072AC8"/>
<path d="M54.7637 15.7949C54.8887 15.834 55.0137 15.8613 55.1387 15.877C55.2637 15.8848 55.3887 15.8887 55.5137 15.8887C55.8262 15.8887 56.127 15.8457 56.416 15.7598C56.7051 15.6738 56.9746 15.5527 57.2246 15.3965C57.4824 15.2324 57.709 15.0371 57.9043 14.8105C58.1074 14.5762 58.2715 14.3184 58.3965 14.0371L60.7402 16.3926C60.4434 16.8145 60.0996 17.1934 59.709 17.5293C59.3262 17.8652 58.9082 18.1504 58.4551 18.3848C58.0098 18.6191 57.5371 18.7949 57.0371 18.9121C56.5449 19.0371 56.0371 19.0996 55.5137 19.0996C54.6309 19.0996 53.7988 18.9355 53.0176 18.6074C52.2441 18.2793 51.5645 17.8223 50.9785 17.2363C50.4004 16.6504 49.9434 15.9551 49.6074 15.1504C49.2715 14.3379 49.1035 13.4473 49.1035 12.4785C49.1035 11.4863 49.2715 10.5801 49.6074 9.75977C49.9434 8.93945 50.4004 8.24023 50.9785 7.66211C51.5645 7.08398 52.2441 6.63477 53.0176 6.31445C53.7988 5.99414 54.6309 5.83398 55.5137 5.83398C56.0371 5.83398 56.5488 5.89648 57.0488 6.02148C57.5488 6.14648 58.0215 6.32617 58.4668 6.56055C58.9199 6.79492 59.3418 7.08398 59.7324 7.42773C60.123 7.76367 60.4668 8.14258 60.7637 8.56445L54.7637 15.7949ZM56.4043 9.19727C56.2559 9.14258 56.1074 9.10742 55.959 9.0918C55.8184 9.07617 55.6699 9.06836 55.5137 9.06836C55.0762 9.06836 54.6621 9.15039 54.2715 9.31445C53.8887 9.4707 53.5527 9.69727 53.2637 9.99414C52.9824 10.291 52.7598 10.6504 52.5957 11.0723C52.4316 11.4863 52.3496 11.9551 52.3496 12.4785C52.3496 12.5957 52.3535 12.7285 52.3613 12.877C52.377 13.0254 52.3965 13.1777 52.4199 13.334C52.4512 13.4824 52.4863 13.627 52.5254 13.7676C52.5645 13.9082 52.6152 14.0332 52.6777 14.1426L56.4043 9.19727Z" fill="#072AC8"/>
</svg>
