<svg width="147" height="9" viewBox="0 0 147 9" fill="none" xmlns="http://www.w3.org/2000/svg">
<g clip-path="url(#clip0_28_170)">
<path fill-rule="evenodd" clip-rule="evenodd" d="M81.9886 6.87268C83.2745 6.87268 84.317 5.83021 84.317 4.54425C84.317 3.25829 83.2745 2.21582 81.9886 2.21582C80.7026 2.21582 79.6602 3.25829 79.6602 4.54425C79.6602 5.83021 80.7026 6.87268 81.9886 6.87268Z" fill="#E1E1E1"/>
<path fill-rule="evenodd" clip-rule="evenodd" d="M73.6063 6.87268C74.8922 6.87268 75.9347 5.83021 75.9347 4.54425C75.9347 3.25829 74.8922 2.21582 73.6063 2.21582C72.3203 2.21582 71.2778 3.25829 71.2778 4.54425C71.2778 5.83021 72.3203 6.87268 73.6063 6.87268Z" fill="#E1E1E1"/>
<path fill-rule="evenodd" clip-rule="evenodd" d="M65.2239 6.87268C66.5099 6.87268 67.5524 5.83021 67.5524 4.54425C67.5524 3.25829 66.5099 2.21582 65.2239 2.21582C63.938 2.21582 62.8955 3.25829 62.8955 4.54425C62.8955 5.83021 63.938 6.87268 65.2239 6.87268Z" fill="#292E47"/>
</g>
<defs>
<clipPath id="clip0_28_170">
<rect width="22.3529" height="4.65686" fill="white" transform="translate(62.4298 2.21582)"/>
</clipPath>
</defs>
</svg>
